<svg width="16" height="16" viewBox="0 0 16 16" fill="none" xmlns="http://www.w3.org/2000/svg">
<path d="M13.3327 13.9997V8.66634C13.3327 8.31272 13.1922 7.97358 12.9422 7.72353C12.6921 7.47348 12.353 7.33301 11.9993 7.33301H3.99935C3.64573 7.33301 3.30659 7.47348 3.05654 7.72353C2.80649 7.97358 2.66602 8.31272 2.66602 8.66634V13.9997" stroke="#965EDC" stroke-width="1.5" stroke-linecap="round" stroke-linejoin="round"/>
<path d="M2.66602 10.6667C2.66602 10.6667 2.99935 10 3.99935 10C4.99935 10 5.66602 11.3333 6.66602 11.3333C7.66602 11.3333 8.33268 10 9.33268 10C10.3327 10 10.9993 11.3333 11.9993 11.3333C12.9993 11.3333 13.3327 10.6667 13.3327 10.6667" stroke="#965EDC" stroke-width="1.5" stroke-linecap="round" stroke-linejoin="round"/>
<path d="M1.33398 14H14.6673" stroke="#965EDC" stroke-width="1.5" stroke-linecap="round" stroke-linejoin="round"/>
<path d="M4.66602 5.33301V6.66634" stroke="#965EDC" stroke-width="1.5" stroke-linecap="round" stroke-linejoin="round"/>
<path d="M8 5.33301V6.66634" stroke="#965EDC" stroke-width="1.5" stroke-linecap="round" stroke-linejoin="round"/>
<path d="M11.334 5.33301V6.66634" stroke="#965EDC" stroke-width="1.5" stroke-linecap="round" stroke-linejoin="round"/>
<path d="M4.66602 2.66699H4.67268" stroke="#965EDC" stroke-width="1.5" stroke-linecap="round" stroke-linejoin="round"/>
<path d="M8 2.66699H8.00667" stroke="#965EDC" stroke-width="1.5" stroke-linecap="round" stroke-linejoin="round"/>
<path d="M11.334 2.66699H11.3407" stroke="#965EDC" stroke-width="1.5" stroke-linecap="round" stroke-linejoin="round"/>
</svg>
