<svg width="16" height="16" viewBox="0 0 16 16" fill="none" xmlns="http://www.w3.org/2000/svg">
<path d="M13.3327 12.9997V13.333C13.3327 13.6866 13.1922 14.0258 12.9422 14.2758C12.6921 14.5259 12.353 14.6663 11.9993 14.6663H3.99935C3.64573 14.6663 3.30659 14.5259 3.05654 14.2758C2.80649 14.0258 2.66602 13.6866 2.66602 13.333V2.66634C2.66602 2.31272 2.80649 1.97358 3.05654 1.72353C3.30659 1.47348 3.64573 1.33301 3.99935 1.33301H9.66602L11.9993 3.66634" stroke="#020617" stroke-width="1.5" stroke-linecap="round" stroke-linejoin="round"/>
<path d="M5.33398 12H6.00065" stroke="#020617" stroke-width="1.5" stroke-linecap="round" stroke-linejoin="round"/>
<path d="M12.2793 6.40714C12.4094 6.27713 12.5637 6.174 12.7336 6.10364C12.9034 6.03328 13.0855 5.99707 13.2693 5.99707C13.4532 5.99707 13.6353 6.03328 13.8051 6.10364C13.975 6.174 14.1293 6.27713 14.2593 6.40714C14.3894 6.53715 14.4925 6.69149 14.5628 6.86136C14.6332 7.03122 14.6694 7.21328 14.6694 7.39714C14.6694 7.581 14.6332 7.76306 14.5628 7.93293C14.4925 8.10279 14.3894 8.25713 14.2593 8.38714L11.2993 11.3338L8.66602 12.0005L9.32602 9.36714L12.2793 6.40714Z" stroke="#1E293B" stroke-width="1.5" stroke-linecap="round" stroke-linejoin="round"/>
</svg>
